<svg xmlns="http://www.w3.org/2000/svg" xmlns:xlink="http://www.w3.org/1999/xlink" width="234.124" height="185.951" viewBox="0 0 234.124 185.951">
  <defs>
    <clipPath id="clip-path">
      <path id="Path_4" data-name="Path 4" d="M193.405,82.813C154.244,59.2,135.742-13.558,75.354,29.916c-60.5,43.475-35.416,132.695,22.475,154.261S230.3,193.6,251.182,153.529C287.052,84.969,219.627,98.7,193.405,82.813Z" transform="translate(-40.453 -16.338)"/>
    </clipPath>
  </defs>
  <g id="about-me" transform="translate(-26.092 -54.951)">
    <g id="Group_59" data-name="Group 59" transform="translate(-20 16)">
      <path id="Path_2" data-name="Path 2" d="M193.405,82.813C154.244,59.2,135.742-13.558,75.354,29.916c-60.5,43.475-35.416,132.695,22.475,154.261S230.3,193.6,251.182,153.529C287.052,84.969,219.627,98.7,193.405,82.813Z" transform="translate(5.639 30.179)" fill="rgba(104,109,224,0.1)"/>
      <g id="Group_2" data-name="Group 2" transform="translate(46.092 46.517)">
        <g id="Group_1" data-name="Group 1" transform="translate(0 0)" clip-path="url(#clip-path)">
          <path id="Path_3" data-name="Path 3" d="M35.3,160.851s33.372-33.486,89.107-17.594,88.537,2.269,81.614-81.956c0,0,78.323,10.9,68.334,66.634C262.209,195.584,104.769,221.351,35.3,160.851Z" transform="translate(-41.15 -10.264)" fill="rgba(255,255,255,0.2)"/>
        </g>
      </g>
      <path id="Path_14" data-name="Path 14" d="M174.8,25.923s2.61-2.951,4.086-4.313c2.838-2.383,6.016-6.7,16.459-3.519a20.467,20.467,0,0,1,2.383.908c.908.34,3.745.34,6.584-1.93,4.654-3.632,6.357-6.357,12.714-6.473,7.378-.116,8.513,9.081,14.189,11.352,3.632,1.475,13.167,2.951,15.211,3.632Z" transform="translate(33.79 32.405)" fill="rgba(104,109,224,0.1)"/>
      <path id="Path_60" data-name="Path 60" d="M174.8,18.236s1.3-1.47,2.036-2.149c1.414-1.187,3-3.336,8.2-1.753a10.2,10.2,0,0,1,1.187.453,3.876,3.876,0,0,0,3.28-.961c2.319-1.809,3.166-3.166,6.333-3.223,3.676-.058,4.241,4.524,7.069,5.655,1.809.735,6.56,1.47,7.578,1.809Z" transform="translate(-33.8 28.382)" fill="rgba(104,109,224,0.1)"/>
    </g>
    <g id="OBJECTS" transform="translate(-8)">
      <g id="Group_22" data-name="Group 22">
        <g id="Group_21" data-name="Group 21">
          <g id="Group_17" data-name="Group 17">
            <rect id="Rectangle_13" data-name="Rectangle 13" width="35.663" height="38.35" transform="translate(90.31 100.222)" fill="#3d415b"/>
            <path id="Path_35" data-name="Path 35" d="M93.261,143.313v3.254h1.906l-5.578,66.757H94.8l5.578-66.757h2v-3.254Z" fill="#606060"/>
            <path id="Path_36" data-name="Path 36" d="M150.367,143.313v3.254h-1.906l5.578,66.757h-5.206l-5.578-66.757h-2v-3.254Z" fill="#606060"/>
            <g id="Group_13" data-name="Group 13">
              <path id="Path_37" data-name="Path 37" d="M135.206,201.822l-.853,2.039-5.816,1.748-7.954.271,5.034,5.024,12.427,2.42.782-6.706,1.116-2.17Z" fill="#29323d"/>
              <path id="Path_38" data-name="Path 38" d="M182.628,152.517,152.18,167.578l-18.268,34.956,6.322,2.231s14.317-8.367,20.639-25.1L197.131,164.6Z" fill="#303348"/>
              <path id="Path_39" data-name="Path 39" d="M178.165,200.21l.837,2.045L176.12,207.6l-5.439,5.811h7.112l10.505-7.066-4.184-5.3-.744-2.324Z" fill="#1b1b35"/>
              <path id="Path_40" data-name="Path 40" d="M217.4,149.356s3.347,10.04-2.231,14.689-37.374,3.161-37.374,3.161,8.553,16.362,6.694,31.981l-6.647,1.86s-13.527-27.333-16.6-33.655a7.625,7.625,0,0,1,4.648-10.784c5.021-1.674,22.313-7.252,22.313-7.252Z" fill="#3d415b"/>
              <path id="Path_41" data-name="Path 41" d="M180.559,92.552s-2.65,12.83,2.44,13.806,4.812-.767,6.9,1.882l8.716-3.207a7.359,7.359,0,0,1-1.72-4.067c-.064-2.051.883-7.508.953-10.575s-1.673-7.392-7.6-7.6S182.023,85.161,180.559,92.552Z" fill="#efddc6"/>
              <path id="Path_42" data-name="Path 42" d="M180.454,94.086a19.83,19.83,0,0,0-2.126,2.58c-.279.627,1.917,1.22,1.917,1.22Z" fill="#efddc6"/>
              <path id="Path_43" data-name="Path 43" d="M181,90.507s-2.7-1.348-2.139-3.44,3.022-1.488,3.022-1.488-2.278-2.556-.837-4.323c1.729-2.118,6.183.279,6.183.279s8.878-1.162,10.784,4.184-1.139,14.5-1.139,14.5L193.458,98.2a2.05,2.05,0,0,0,1.72-1.627c.21-1.418-.279-2.6-1.371-2.394a1.605,1.605,0,0,0-1.209,1.395l-.441,1.069-1.3.325.372-3.858-2.417-.883.046-1.72S185.812,90.693,181,90.507Z" fill="#673e00"/>
              <path id="Path_44" data-name="Path 44" d="M196.994,84.939s1.629-1.464.95-2.352a.607.607,0,1,0-1.06.588C197.308,83.745,196.994,84.939,196.994,84.939Z" fill="#673e00"/>
              <path id="Path_45" data-name="Path 45" d="M197.014,84.908s1.484-1.035,2.071-.321-.372,1.1-.673.741C198.033,84.88,197.014,84.908,197.014,84.908Z" fill="#673e00"/>
              <path id="Path_46" data-name="Path 46" d="M224.092,140.617h0a3.916,3.916,0,0,1-3.9-3.9V108.078a3.916,3.916,0,0,1,3.9-3.905h0a3.916,3.916,0,0,1,3.9,3.905v28.634A3.916,3.916,0,0,1,224.092,140.617Z" fill="#1b1b35"/>
              <path id="Path_47" data-name="Path 47" d="M185.6,169.251h0a3.917,3.917,0,0,1,3.9-3.905H222.79a3.917,3.917,0,0,1,3.905,3.905h0a3.916,3.916,0,0,1-3.905,3.9H189.507A3.916,3.916,0,0,1,185.6,169.251Z" fill="#1b1b35"/>
              <path id="Path_48" data-name="Path 48" d="M225.107,166.6l-1.38-1.381c7.778-7.778,17.8-19.53,15.077-31.729-2.594-11.608-11.39-13.27-11.763-13.335l.327-1.925c.425.071,10.451,1.9,13.342,14.834C243.646,146.2,233.212,158.49,225.107,166.6Z" fill="#1b1b35"/>
              <path id="Path_49" data-name="Path 49" d="M192.622,101.291c-1.124,3.057-5.2,5.244-5.471,5.385,1.123-.031,1.541.031,2.751,1.564l1.734-.637A12.3,12.3,0,0,0,192.622,101.291Z" fill="#d6c5af" style="mix-blend-mode: multiply;isolation: isolate"/>
              <path id="Path_50" data-name="Path 50" d="M152.622,133.691l-.376,1.409a.579.579,0,0,0,.523.727h0a.58.58,0,0,0,.57-.354l1.073-2.549Z" fill="#c8ab88"/>
              <path id="Path_51" data-name="Path 51" d="M157.044,130.745l-2.789-.227-1.918.941L151,133.232a.463.463,0,0,0,.076.636h0a.462.462,0,0,0,.529.041l1.6-.951Z" fill="#c8ab88"/>
              <path id="Path_52" data-name="Path 52" d="M164.034,132.25s-1.3-.279-1.86-.326-4.369-1.348-5.857-1.208-4.276,2.138-4.276,2.138l-1.674,2.742s.384.535.872.465,1.848-2.266,1.848-2.266l2.893-1.185a10.39,10.39,0,0,0,2.58,3.033c1.465,1.011,2.72.872,3.452,1.15s1.743.8,1.743.8Z" fill="#efddc6"/>
              <path id="Path_53" data-name="Path 53" d="M198.339,104.336s13.016,6.9,17.943,17.594,2.882,28.356,2.882,28.356H185.045a24.663,24.663,0,0,1,4.927-12.179c4.463-5.671,2.136-14.676-.418-18.153a7.985,7.985,0,0,1,.046-9.366l-1.534-2.324Z" fill="#686de0"/>
              <path id="Path_54" data-name="Path 54" d="M201.032,110.622s-6.344,2-8.286,8.282c-1.883,6.09-14.038,14.438-27.584,12.384a1.3,1.3,0,0,0-1.483,1.071l-1.053,6.608a1.289,1.289,0,0,0,.795,1.4c3.462,1.377,15.729,5.6,26.646,1.266,12.863-5.106,18.133-20.458,17.558-23.939S205.894,110.831,201.032,110.622Z" fill="#686de0"/>
              <path id="Path_55" data-name="Path 55" d="M196.666,145.451c-.186-3.9,14.224-8.925,14.224-23.056,0-7.174-4.369-8.553-4.369-8.553l-.016.018a13.271,13.271,0,0,1,1.12,3.837c.575,3.481-4.7,18.833-17.558,23.939a25.523,25.523,0,0,1-2.821.926,24.353,24.353,0,0,0-2.2,7.724H208.8C206.3,147.276,196.776,147.759,196.666,145.451Z" fill="#e1e1e1" style="mix-blend-mode: multiply;isolation: isolate"/>
              <rect id="Rectangle_14" data-name="Rectangle 14" width="23.289" height="5.718" transform="translate(194.504 170.227)" fill="#1b1b35"/>
              <rect id="Rectangle_15" data-name="Rectangle 15" width="10.18" height="3.393" transform="translate(201.059 205.37)" fill="#1b1b35"/>
              <rect id="Rectangle_16" data-name="Rectangle 16" width="1.952" height="33.004" transform="translate(205.173 174.132)" fill="#1b1b35"/>
              <path id="Path_56" data-name="Path 56" d="M190.669,213.458h-1.952v-7.577h14.271v1.952H190.669Z" fill="#1b1b35"/>
              <circle id="Ellipse_2" data-name="Ellipse 2" cx="2.719" cy="2.719" r="2.719" transform="translate(186.997 209.065)" fill="#1b1b35"/>
              <path id="Path_57" data-name="Path 57" d="M223.487,213.458h-1.952v-5.625H209.217v-1.952h14.271Z" fill="#1b1b35"/>
              <circle id="Ellipse_3" data-name="Ellipse 3" cx="2.719" cy="2.719" r="2.719" transform="translate(219.769 209.065)" fill="#1b1b35"/>
            </g>
            <rect id="Rectangle_17" data-name="Rectangle 17" width="77.629" height="4.741" transform="translate(82.64 138.572)" fill="#606060"/>
            <rect id="Rectangle_18" data-name="Rectangle 18" width="25.241" height="4.741" transform="translate(135.028 138.572)" fill="#606060" opacity="0.5" style="mix-blend-mode: multiply;isolation: isolate"/>
            <rect id="Rectangle_19" data-name="Rectangle 19" width="6.973" height="4.741" transform="translate(84.825 138.572)" fill="#606060" opacity="0.5" style="mix-blend-mode: screen;isolation: isolate"/>
            <g id="Group_14" data-name="Group 14">
              <rect id="Rectangle_20" data-name="Rectangle 20" width="9.111" height="3.254" transform="translate(86.312 143.313)" fill="#606060"/>
              <rect id="Rectangle_21" data-name="Rectangle 21" width="2.528" height="3.254" transform="translate(87.061 143.313)" fill="#606060" opacity="0.5" style="mix-blend-mode: screen;isolation: isolate"/>
              <path id="Path_58" data-name="Path 58" d="M87.846,213.324H82.64l5.578-66.757h5.206Z" fill="#606060"/>
              <path id="Path_59" data-name="Path 59" d="M84.011,213.324H83.43l5.578-66.757h.581Z" fill="#606060" opacity="0.5" style="mix-blend-mode: screen;isolation: isolate"/>
              <path id="Path_60-2" data-name="Path 60" d="M87.846,213.324H85.754l5.578-66.757h2.092Z" fill="#606060" opacity="0.5" style="mix-blend-mode: multiply;isolation: isolate"/>
              <path id="Path_61" data-name="Path 61" d="M93.218,149.031l.206-2.464H88.218l-.206,2.464Z" fill="#606060" opacity="0.5" style="mix-blend-mode: multiply;isolation: isolate"/>
              <rect id="Rectangle_22" data-name="Rectangle 22" width="9.111" height="1.395" transform="translate(86.312 143.313)" fill="#606060" opacity="0.5" style="mix-blend-mode: multiply;isolation: isolate"/>
            </g>
            <g id="Group_15" data-name="Group 15">
              <rect id="Rectangle_23" data-name="Rectangle 23" width="9.111" height="3.254" transform="translate(157.131 146.567) rotate(180)" fill="#606060"/>
              <rect id="Rectangle_24" data-name="Rectangle 24" width="2.998" height="3.254" transform="translate(151.976 146.567) rotate(180)" fill="#606060" opacity="0.5" style="mix-blend-mode: screen;isolation: isolate"/>
              <path id="Path_62" data-name="Path 62" d="M155.6,213.324H160.8l-5.578-66.757h-5.206Z" fill="#606060"/>
              <path id="Path_63" data-name="Path 63" d="M156.352,213.324h.581l-5.578-66.757h-.581Z" fill="#606060" opacity="0.5" style="mix-blend-mode: screen;isolation: isolate"/>
              <path id="Path_64" data-name="Path 64" d="M158.677,213.324h2.092l-5.578-66.757H153.1Z" fill="#606060" opacity="0.5" style="mix-blend-mode: multiply;isolation: isolate"/>
              <path id="Path_65" data-name="Path 65" d="M150.225,149.031l-.206-2.464h5.206l.206,2.464Z" fill="#606060" opacity="0.5" style="mix-blend-mode: multiply;isolation: isolate"/>
              <rect id="Rectangle_25" data-name="Rectangle 25" width="9.111" height="1.395" transform="translate(157.131 144.708) rotate(180)" fill="#606060" opacity="0.5" style="mix-blend-mode: multiply;isolation: isolate"/>
            </g>
            <rect id="Rectangle_26" data-name="Rectangle 26" width="22.591" height="2.744" transform="translate(133.261 135.828)" fill="#3d415b"/>
            <g id="Group_16" data-name="Group 16">
              <rect id="Rectangle_36" data-name="Rectangle 36" width="3.87" height="35.924" transform="translate(116.713 91.158)" fill="#ebebeb"/>
              <rect id="Rectangle_37" data-name="Rectangle 37" width="2.603" height="16.781" transform="translate(114.11 101.617)" fill="#ebebeb"/>
              <path id="Path_67" data-name="Path 67" d="M107.416,135.77H110.3l6.415-28.343h-2.882Z" fill="#ebebeb"/>
              <rect id="Rectangle_38" data-name="Rectangle 38" width="23.893" height="3.204" transform="translate(104.813 135.368)" fill="#ebebeb"/>
            </g>
            <g id="Group_60" data-name="Group 60">
              <path id="Path_34" data-name="Path 34" d="M131.262,210.436H86.219V103.813h2.748v.558H86.777V209.879h44.485Z" fill="#303348"/>
              <rect id="Rectangle_27" data-name="Rectangle 27" width="0.895" height="4.951" transform="translate(89.415 101.617)" fill="#303348"/>
              <rect id="Rectangle_28" data-name="Rectangle 28" width="0.895" height="2.952" transform="translate(88.52 102.616)" fill="#303348"/>
              <rect id="Rectangle_29" data-name="Rectangle 29" width="0.895" height="2.952" transform="translate(88.52 108.752)" fill="#303348"/>
              <rect id="Rectangle_30" data-name="Rectangle 30" width="0.895" height="4.951" transform="translate(89.415 107.927)" fill="#303348"/>
              <rect id="Rectangle_35" data-name="Rectangle 35" width="1.581" height="0.703" transform="translate(88.729 124.719)" fill="#303348"/>
              <path id="Path_66" data-name="Path 66" d="M133.261,137.874H86.219v-16.2h3.3v.558H86.777v15.087h46.484Z" fill="#303348"/>
              <path id="Path_68" data-name="Path 68" d="M96.725,136.619H85.278V123.232h4.242v.558H85.836v12.272H96.725Z" fill="#303348"/>
              <path id="Path_69" data-name="Path 69" d="M88.729,132.784H84.058V118.49h27.206v.558H84.615v13.178h4.114Z" fill="#303348"/>
              <g id="Group_61" data-name="Group 61">
                <rect id="Rectangle_31" data-name="Rectangle 31" width="0.895" height="2.952" transform="translate(88.52 131.343)" fill="#303348"/>
                <rect id="Rectangle_32" data-name="Rectangle 32" width="0.895" height="4.951" transform="translate(89.415 130.518)" fill="#303348"/>
                <rect id="Rectangle_33" data-name="Rectangle 33" width="1.581" height="0.703" transform="translate(88.729 121.599)" fill="#303348"/>
                <rect id="Rectangle_34" data-name="Rectangle 34" width="1.581" height="0.703" transform="translate(88.729 123.159)" fill="#303348"/>
              </g>
            </g>
          </g>
          <g id="Group_20" data-name="Group 20">
            <g id="Group_18" data-name="Group 18">
              <path id="Path_70" data-name="Path 70" d="M82.935,176.354s4.113-8.646,3.137-14.364-6.066-4.462-4.671-11.3.139-10.877-3.9-11.574-4.184-4.091-6.973-8.716c-2.524-4.187-11.9-3-10.04,5.787,2.461,11.629,8.227,8.228,10.04,12.83s-1.743,9.9,1.046,14.782S79.518,166.383,82.935,176.354Z" fill="#a3d557"/>
              <path id="Path_71" data-name="Path 71" d="M83.072,184.8l-.554-.069a63.077,63.077,0,0,0-.768-16.3,69.671,69.671,0,0,0-15.344-33.5l.425-.361A70.227,70.227,0,0,1,82.3,168.359,63.706,63.706,0,0,1,83.072,184.8Z" fill="#1b1b35"/>
            </g>
            <g id="Group_19" data-name="Group 19">
              <path id="Path_72" data-name="Path 72" d="M86.274,177.672s-3.469-7.291-2.646-12.113,5.116-3.763,3.94-9.526-.118-9.173,3.293-9.761,3.528-3.45,5.88-7.35c2.129-3.531,10.035-2.528,8.467,4.88-2.075,9.807-6.938,6.939-8.467,10.82s1.47,8.35-.882,12.466S89.156,169.263,86.274,177.672Z" fill="#9ee138"/>
              <path id="Path_73" data-name="Path 73" d="M86.159,184.8a53.611,53.611,0,0,1,.648-13.866,59.235,59.235,0,0,1,13.047-28.495l.359.3A58.758,58.758,0,0,0,87.274,170.99a53.136,53.136,0,0,0-.648,13.748Z" fill="#1b1b35"/>
            </g>
            <path id="Path_74" data-name="Path 74" d="M96.275,213.96H72.64l-4.827-32.839H101.1Z" fill="#974b00"/>
            <path id="Path_75" data-name="Path 75" d="M69.224,181.121l4.827,32.839h3.187l-4.827-32.839Z" fill="#d3c2be" opacity="0.5" style="mix-blend-mode: screen;isolation: isolate"/>
            <path id="Path_76" data-name="Path 76" d="M101.1,181.121,96.275,213.96H89.88l4.827-32.839Z" fill="#d3c2be" opacity="0.5" style="mix-blend-mode: multiply;isolation: isolate"/>
            <path id="Path_77" data-name="Path 77" d="M100.234,187.022l.3-2.022H68.383l.3,2.022Z" fill="#d3c2be" opacity="0.5" style="mix-blend-mode: multiply;isolation: isolate"/>
            <rect id="Rectangle_39" data-name="Rectangle 39" width="20.5" height="2.138" transform="translate(74.207 213.96)" fill="#974b00"/>
            <rect id="Rectangle_40" data-name="Rectangle 40" width="20.5" height="1.069" transform="translate(74.207 213.96)" fill="#8a4200" opacity="0.5" style="mix-blend-mode: multiply;isolation: isolate"/>
            <rect id="Rectangle_41" data-name="Rectangle 41" width="36.258" height="4.741" transform="translate(66.328 180.258)" fill="#974b00"/>
            <rect id="Rectangle_42" data-name="Rectangle 42" width="6.726" height="4.741" transform="translate(95.86 180.258)" fill="#d3c2be" opacity="0.5" style="mix-blend-mode: multiply;isolation: isolate"/>
            <rect id="Rectangle_43" data-name="Rectangle 43" width="4.497" height="4.741" transform="translate(67.168 180.258)" fill="#d3c2be" opacity="0.5" style="mix-blend-mode: screen;isolation: isolate"/>
          </g>
        </g>
      </g>
    </g>
    <g id="Group_9" data-name="Group 9" transform="translate(37.001 85.305)">
      <path id="Path_15" data-name="Path 15" d="M126.085,48.592l-.651-1.692-.651,1.692a5.779,5.779,0,0,1-3.384,3.384h0a6.148,6.148,0,0,1,3.384,3.384l.651,1.692.651-1.692a5.779,5.779,0,0,1,3.384-3.384h0a5.779,5.779,0,0,1-3.384-3.384Z" transform="translate(-3.751 -56.9)" fill="#eff0fc"/>
      <path id="Path_16" data-name="Path 16" d="M83.985,124.892l-.651-1.692-.651,1.692a5.779,5.779,0,0,1-3.384,3.384h0a6.148,6.148,0,0,1,3.384,3.384l.651,1.692.651-1.692a5.779,5.779,0,0,1,3.384-3.384h0a5.779,5.779,0,0,1-3.384-3.384Z" transform="translate(5.558 -56.899)" fill="#fff"/>
      <path id="Path_17" data-name="Path 17" d="M209.793,116.771l-.39-1.172-.39,1.172a4.094,4.094,0,0,1-2.212,2.212h0a4.563,4.563,0,0,1,2.212,2.212l.39,1.171.39-1.171a4.094,4.094,0,0,1,2.212-2.212h0A4.563,4.563,0,0,1,209.793,116.771Z" transform="translate(-132.006 -120.19)" fill="#fff"/>
      <path id="Path_18" data-name="Path 18" d="M63.193,72.472,62.8,71.3l-.39,1.172A4.094,4.094,0,0,1,60.2,74.684h0A4.563,4.563,0,0,1,62.412,76.9l.39,1.171.39-1.171a4.094,4.094,0,0,1,2.212-2.212h0a4.563,4.563,0,0,1-2.212-2.212Z" transform="translate(-37.2 -42.544)" fill="#fff"/>
    </g>
    <g id="Group_8" data-name="Group 8" transform="translate(36.505 54.951)">
      <g id="Group_3" data-name="Group 3" transform="translate(0 0)">
        <path id="Path_5" data-name="Path 5" d="M88.548,27.086V51.318A3.77,3.77,0,0,1,84.762,55.1H33.186A3.77,3.77,0,0,1,29.4,51.318V27.086A3.77,3.77,0,0,1,33.186,23.3H84.762a3.881,3.881,0,0,1,3.786,3.786Z" transform="translate(-29.4 -23.3)" fill="#dc56fc"/>
      </g>
      <path id="Path_6" data-name="Path 6" d="M88.548,27.086v2.1H29.4v-2.1A3.77,3.77,0,0,1,33.186,23.3H84.762a3.881,3.881,0,0,1,3.786,3.786Z" transform="translate(-29.4 -23.3)" fill="rgba(0,0,0,0.24)"/>
      <g id="Group_4" data-name="Group 4" transform="translate(2.524 2.513)">
        <circle id="Ellipse_1" data-name="Ellipse 1" cx="0.757" cy="0.757" r="0.757" transform="translate(0 0.011)" fill="#fff"/>
        <path id="Path_7" data-name="Path 7" d="M37.814,27.055a.757.757,0,1,1-.757-.757C37.393,26.214,37.814,26.635,37.814,27.055Z" transform="translate(-33.018 -26.287)" fill="#fff"/>
        <path id="Path_8" data-name="Path 8" d="M41.523,27.057a.754.754,0,1,1-.221-.536A.754.754,0,0,1,41.523,27.057Z" transform="translate(-33.614 -26.289)" fill="#fff"/>
      </g>
      <path id="Path_9" data-name="Path 9" d="M50.72,45.522H38.773a.662.662,0,0,1-.673-.673V35.173a.662.662,0,0,1,.673-.673H50.637a.662.662,0,0,1,.673.673v9.592a.629.629,0,0,1-.589.757Z" transform="translate(-30.78 -25.077)" fill="#fff"/>
      <g id="Group_5" data-name="Group 5" transform="translate(6.479 23.895)">
        <path id="Path_10" data-name="Path 10" d="M81.608,53.383H37.941a.843.843,0,0,1-.841-.841h0a.843.843,0,0,1,.841-.841H81.608a.843.843,0,0,1,.841.841h0A.843.843,0,0,1,81.608,53.383Z" transform="translate(-37.1 -51.7)" fill="#fff"/>
      </g>
      <g id="Group_6" data-name="Group 6" transform="translate(23.643 17.585)">
        <path id="Path_11" data-name="Path 11" d="M84.845,45.883h-26.5a.843.843,0,0,1-.841-.841h0a.843.843,0,0,1,.841-.841h26.5a.843.843,0,0,1,.841.841h0A.843.843,0,0,1,84.845,45.883Z" transform="translate(-57.5 -44.2)" fill="#fff"/>
      </g>
      <g id="Group_7" data-name="Group 7" transform="translate(23.643 11.695)">
        <path id="Path_12" data-name="Path 12" d="M74.748,38.883H58.342a.843.843,0,0,1-.842-.841h0a.843.843,0,0,1,.841-.841H74.748a.843.843,0,0,1,.841.841h0a.905.905,0,0,1-.841.841Z" transform="translate(-57.5 -37.2)" fill="#fff"/>
      </g>
    </g>
    <g id="Group_28" data-name="Group 28" transform="translate(209.053 80.422)">
      <path id="Path_50-2" data-name="Path 50" d="M203.808,57.664h42.323a2.622,2.622,0,0,0,2.608-2.608V43.108a2.622,2.622,0,0,0-2.608-2.608H203.808a2.622,2.622,0,0,0-2.608,2.608V55.14A2.606,2.606,0,0,0,203.808,57.664Z" transform="translate(-201.2 -40.5)" fill="#793beb"/>
      <g id="Group_27" data-name="Group 27" transform="translate(5.214 3.62)">
        <path id="Path_51-2" data-name="Path 51" d="M239.941,54.732h8.75a.843.843,0,0,0,.841-.841V45.646a.843.843,0,0,0-.841-.841h-8.75a.843.843,0,0,0-.841.841V53.89A.981.981,0,0,0,239.941,54.732Z" transform="translate(-212.426 -44.805)" fill="#fff"/>
        <g id="Group_26" data-name="Group 26" transform="translate(0 0.756)">
          <path id="Path_52-2" data-name="Path 52" d="M208.073,47.047h22.549a.662.662,0,0,0,.673-.673h0a.662.662,0,0,0-.673-.673H208.073a.662.662,0,0,0-.673.673h0a.662.662,0,0,0,.673.673Z" transform="translate(-207.397 -45.701)" fill="#fff"/>
          <g id="Group_25" data-name="Group 25" transform="translate(0 3.533)">
            <path id="Path_53-2" data-name="Path 53" d="M225.57,51.247h7.909a.662.662,0,0,0,.673-.673h0a.662.662,0,0,0-.673-.673H225.57a.662.662,0,0,0-.673.673h0C224.813,50.994,225.148,51.247,225.57,51.247Z" transform="translate(-210.171 -49.9)" fill="#fff"/>
            <path id="Path_54-2" data-name="Path 54" d="M208.069,51.246h9.424a.662.662,0,0,0,.673-.673h0a.662.662,0,0,0-.673-.673h-9.424a.662.662,0,0,0-.673.673h0a.619.619,0,0,0,.673.673Z" transform="translate(-207.393 -49.9)" fill="#fff"/>
          </g>
          <path id="Path_55-2" data-name="Path 55" d="M214.773,55.546h16.912a.662.662,0,0,0,.673-.673h0a.662.662,0,0,0-.673-.673H214.773a.662.662,0,0,0-.673.673h0a.724.724,0,0,0,.673.673Z" transform="translate(-208.46 -47.049)" fill="#fff"/>
        </g>
      </g>
    </g>
  </g>
</svg>
