<svg xmlns="http://www.w3.org/2000/svg" xmlns:xlink="http://www.w3.org/1999/xlink" width="161" height="161" viewBox="0 0 161 161"><defs><clipPath id="a"><circle cx="80.5" cy="80.5" r="80.5" transform="translate(640 249)" fill="none" stroke="#707070" stroke-width="1"/></clipPath><clipPath id="b"><path d="M561.428,413.44H461.134l18.336-131.663c3.04-19.186,37.97-26.42,55.576-26.49,21.389-.083,47.321,11.354,52.937,31.992l-16.609,56.479Z" transform="translate(-492.049 -148.304)"/></clipPath><clipPath id="c"><path d="M536.635,232.716l-7.691,41.02a16.454,16.454,0,0,1-19.991,12.971h0a16.452,16.452,0,0,1-12.381-18.881l4.175-23.509Z" transform="translate(-496.315 -232.716)"/></clipPath><clipPath id="d"><path d="M542.806,226.362l-1.065,14.024s11.924,1.607,8.526,12.482-11.556,6.119-11.556,6.119-2.04,27.869-30.588,19.031c-22.721-7.033-21.331-36.453-18.446-61.537a16.792,16.792,0,0,1,19.909-14.528L526.75,205.3A19.924,19.924,0,0,1,542.806,226.362Z" transform="translate(-476.637 -180.136)"/></clipPath><clipPath id="e"><path d="M561.428,413.44H461.134l18.336-131.663c3.04-19.186,37.97-26.42,55.576-26.49,21.389-.083,47.321,11.354,52.937,31.992l-16.609,56.479Z" transform="translate(-492.049 -148.304)" fill="#686de0"/></clipPath><clipPath id="f"><path d="M536.635,232.716l-7.691,41.02a16.454,16.454,0,0,1-19.991,12.971h0a16.452,16.452,0,0,1-12.381-18.881l4.175-23.509Z" transform="translate(-496.315 -232.716)" fill="#efddc6"/></clipPath><clipPath id="g"><path d="M542.806,226.362l-1.065,14.024s11.924,1.607,8.526,12.482-11.556,6.119-11.556,6.119-2.04,27.869-30.588,19.031c-22.721-7.033-21.331-36.453-18.446-61.537a16.792,16.792,0,0,1,19.909-14.528L526.75,205.3A19.924,19.924,0,0,1,542.806,226.362Z" transform="translate(-476.637 -180.136)" fill="#efddc6"/></clipPath></defs><g transform="translate(-640 -249)"><path d="M80.5,0A80.5,80.5,0,1,1,0,80.5,80.5,80.5,0,0,1,80.5,0Z" transform="translate(640 249)" fill="#e3e8ff"/><g clip-path="url(#a)"><g transform="translate(498.831 103.81)"><g transform="translate(42.37 168.978)" opacity="0.103"><g transform="translate(-1 1)"><g transform="translate(45.726 100.603)"><g transform="translate(135.888 68.983)"><path d="M504.941,295.5c9.458-.527,18.8-.117,28.248.008.825.011.777-1.156,0-1.25-9.311-1.112-18.928-.668-28.248.135-.7.06-.718,1.148,0,1.107Z" transform="translate(-504.409 -293.596)"/></g><g transform="translate(161.945 17.83)"><path d="M537.317,262.046c-31.951,2.886-10.1,50-1.908,64.262a.713.713,0,0,0,1.229-.72c-8.14-14.409-29.921-58.252.785-62.762.439-.065.34-.82-.105-.78Z" transform="translate(-520.481 -262.044)"/></g><g transform="translate(82.674 44.468)"><path d="M479.136,278.772a265.052,265.052,0,0,0-7.55,48.162c-.039.668,1.088.838,1.185.16,2.286-16.063,4.586-32.082,7.161-48.1.083-.512-.663-.746-.8-.22Z" transform="translate(-471.585 -278.475)"/></g><path d="M561.428,413.44H461.134l18.336-131.663c3.04-19.186,37.97-26.42,55.576-26.49,21.389-.083,47.321,11.354,52.937,31.992l-16.609,56.479Z" transform="translate(-394.068 -249.907)"/></g><g transform="translate(143.707)"><g transform="translate(0 -1)" clip-path="url(#b)"><path d="M547.5,232.716l-9.764,52.073a20.887,20.887,0,0,1-25.378,16.467h0a20.885,20.885,0,0,1-15.717-23.968l5.3-29.844Z" transform="translate(-476.53 -164.83)"/></g><path d="M536.635,232.716l-7.691,41.02a16.454,16.454,0,0,1-19.991,12.971h0a16.452,16.452,0,0,1-12.381-18.881l4.175-23.509Z" transform="translate(-471.53 -161.83)"/><path d="M548.058,247.337q.732-10.119,1.467-20.239c5.3-1.493,8.057-8.278,5.942-13.364s-8.126-7.942-13.579-7.164c3.442-2.343,3.178-7.939.353-11s-7.253-4.05-11.413-4.21-8.372.344-12.465-.417c-3.628-.673-7.18-2.333-10.841-1.873s-7.158,4.58-5.185,7.7c-5.279-.777-10.99-1.48-15.679,1.065s-7.044,9.789-3.014,13.286c-2.664,1.357-3.328,5.211-1.832,7.8s4.562,3.944,7.544,4.158a27.676,27.676,0,0,0,8.831-1.289" transform="translate(-481.027 -188.992)"/><g transform="translate(24.785 70.886)" clip-path="url(#c)"><path d="M542.806,226.362l-1.065,14.024s11.924,1.607,8.526,12.482-11.556,6.119-11.556,6.119-2.04,27.869-30.588,19.031c-22.721-7.033-21.331-36.453-18.446-61.537a16.792,16.792,0,0,1,19.909-14.528L526.75,205.3A19.924,19.924,0,0,1,542.806,226.362Z" transform="translate(-499.499 -248.657)"/></g><path d="M542.806,226.362l-1.065,14.024s11.924,1.607,8.526,12.482-11.556,6.119-11.556,6.119-2.04,27.869-30.588,19.031c-22.721-7.033-21.331-36.453-18.446-61.537a16.792,16.792,0,0,1,19.909-14.528L526.75,205.3A19.924,19.924,0,0,1,542.806,226.362Z" transform="translate(-476.637 -181.136)"/><g clip-path="url(#d)"><path d="M556.441,248.344c-10.113-8.621-13.085-22.985-15.829-35.1-9.367,5.964-22.25,7.43-33.05,3.764A51.792,51.792,0,0,1,495.79,226c-1.253.7-2.737,1.383-4.161,1.008-1.7-.446-2.453-2.148-2.856-3.658a22.891,22.891,0,0,1,.588-14.67,18.869,18.869,0,0,1,11.258-10.555c5.659-1.916,12.023-1.083,17.9.248a107.806,107.806,0,0,1,25.258,9.125c7.739,3.965,15.173,9.208,18.455,16.507s3.27,21.48-4.646,25.17" transform="matrix(0.995, -0.105, 0.105, 0.995, -499.804, -129.463)"/></g><path d="M541.893,243.267c-7.968-7.769-10.309-20.713-12.472-31.628a27.906,27.906,0,0,1-26.04,3.392,41.939,41.939,0,0,1-9.275,8.1,4.148,4.148,0,0,1-3.278.908c-1.336-.4-1.933-1.936-2.25-3.3a23.432,23.432,0,0,1,.464-13.219,15.915,15.915,0,0,1,8.87-9.512c4.458-1.727,9.473-.976,14.1.224a78.336,78.336,0,0,1,19.9,8.223c6.1,3.573,11.955,8.3,14.541,14.875s2.576,19.356-3.661,22.681" transform="translate(-476.789 -184.018)"/></g></g></g><g transform="translate(39.37 166.978)"><g transform="translate(0 0)"><g transform="translate(45.726 100.603)"><g transform="translate(135.888 68.983)"><path d="M504.941,295.5c9.458-.527,18.8-.117,28.248.008.825.011.777-1.156,0-1.25-9.311-1.112-18.928-.668-28.248.135-.7.06-.718,1.148,0,1.107Z" transform="translate(-504.409 -293.596)" fill="#1a2766"/></g><g transform="translate(161.945 17.83)"><path d="M537.317,262.046c-31.951,2.886-10.1,50-1.908,64.262a.713.713,0,0,0,1.229-.72c-8.14-14.409-29.921-58.252.785-62.762.439-.065.34-.82-.105-.78Z" transform="translate(-520.481 -262.044)" fill="#1a2766"/></g><g transform="translate(82.674 44.468)"><path d="M479.136,278.772a265.052,265.052,0,0,0-7.55,48.162c-.039.668,1.088.838,1.185.16,2.286-16.063,4.586-32.082,7.161-48.1.083-.512-.663-.746-.8-.22Z" transform="translate(-471.585 -278.475)" fill="#1a2766"/></g><path d="M561.428,413.44H461.134l18.336-131.663c3.04-19.186,37.97-26.42,55.576-26.49,21.389-.083,47.321,11.354,52.937,31.992l-16.609,56.479Z" transform="translate(-394.068 -249.907)" fill="#686de0"/></g><g transform="translate(143.707)"><g transform="translate(0 -1)" clip-path="url(#e)"><path d="M547.5,232.716l-9.764,52.073a20.887,20.887,0,0,1-25.378,16.467h0a20.885,20.885,0,0,1-15.717-23.968l5.3-29.844Z" transform="translate(-476.53 -164.83)" fill="#5c60c5"/></g><path d="M536.635,232.716l-7.691,41.02a16.454,16.454,0,0,1-19.991,12.971h0a16.452,16.452,0,0,1-12.381-18.881l4.175-23.509Z" transform="translate(-471.53 -161.83)" fill="#efddc6"/><path d="M548.058,247.337q.732-10.119,1.467-20.239c5.3-1.493,8.057-8.278,5.942-13.364s-8.126-7.942-13.579-7.164c3.442-2.343,3.178-7.939.353-11s-7.253-4.05-11.413-4.21-8.372.344-12.465-.417c-3.628-.673-7.18-2.333-10.841-1.873s-7.158,4.58-5.185,7.7c-5.279-.777-10.99-1.48-15.679,1.065s-7.044,9.789-3.014,13.286c-2.664,1.357-3.328,5.211-1.832,7.8s4.562,3.944,7.544,4.158a27.676,27.676,0,0,0,8.831-1.289" transform="translate(-481.027 -188.992)" fill="#673e02"/><g transform="translate(24.785 70.886)" clip-path="url(#f)"><path d="M542.806,226.362l-1.065,14.024s11.924,1.607,8.526,12.482-11.556,6.119-11.556,6.119-2.04,27.869-30.588,19.031c-22.721-7.033-21.331-36.453-18.446-61.537a16.792,16.792,0,0,1,19.909-14.528L526.75,205.3A19.924,19.924,0,0,1,542.806,226.362Z" transform="translate(-499.499 -248.657)" fill="#c8ab88"/></g><path d="M542.806,226.362l-1.065,14.024s11.924,1.607,8.526,12.482-11.556,6.119-11.556,6.119-2.04,27.869-30.588,19.031c-22.721-7.033-21.331-36.453-18.446-61.537a16.792,16.792,0,0,1,19.909-14.528L526.75,205.3A19.924,19.924,0,0,1,542.806,226.362Z" transform="translate(-476.637 -181.136)" fill="#efddc6"/><g clip-path="url(#g)"><path d="M556.441,248.344c-10.113-8.621-13.085-22.985-15.829-35.1-9.367,5.964-22.25,7.43-33.05,3.764-3.389,3.481-15.191,11.519-19.592,13.987-1.253.7-3.239,3.95-4.663,3.574-1.7-.446,5.87-9.71,5.466-11.22a22.891,22.891,0,0,1,.588-14.67,18.869,18.869,0,0,1,11.258-10.555c5.659-1.916,12.023-1.083,17.9.248a107.806,107.806,0,0,1,25.258,9.125c7.739,3.965,15.173,9.208,18.455,16.507s3.27,21.48-4.646,25.17" transform="matrix(0.995, -0.105, 0.105, 0.995, -499.804, -129.463)" fill="#c8ab88"/></g><path d="M541.893,243.267c-7.968-7.769-10.309-20.713-12.472-31.628a27.906,27.906,0,0,1-26.04,3.392,41.939,41.939,0,0,1-9.275,8.1,4.148,4.148,0,0,1-3.278.908c-1.336-.4-1.933-1.936-2.25-3.3a23.432,23.432,0,0,1,.464-13.219,15.915,15.915,0,0,1,8.87-9.512c4.458-1.727,9.473-.976,14.1.224a78.336,78.336,0,0,1,19.9,8.223c6.1,3.573,11.955,8.3,14.541,14.875s2.576,19.356-3.661,22.681" transform="translate(-476.789 -184.018)" fill="#673e02"/></g></g></g></g></g></g></svg>