<svg xmlns="http://www.w3.org/2000/svg" xmlns:xlink="http://www.w3.org/1999/xlink" width="509.922" height="348.251" viewBox="0 0 509.922 348.251">
  <defs>
    <clipPath id="clip-path">
      <path id="Path_4" data-name="Path 4" d="M305.113,131.362C237.35,90.507,205.336-35.393,100.843,39.833-3.845,115.059,39.562,269.44,139.733,306.758s229.217,16.3,265.354-53.032C467.154,135.093,350.485,158.859,305.113,131.362Z" transform="translate(-40.453 -16.338)"/>
    </clipPath>
  </defs>
  <g id="image" transform="translate(4.891 -24.227)">
    <g id="Group_30" data-name="Group 30" transform="translate(-4.891 24.233)">
      <path id="Path_2" data-name="Path 2" d="M305.113,131.362C237.35,90.507,205.336-35.393,100.843,39.833-3.845,115.059,39.562,269.44,139.733,306.758s229.217,16.3,265.354-53.032C467.154,135.093,350.485,158.859,305.113,131.362Z" transform="translate(42.763 -5.067)" fill="rgba(104,109,224,0.1)"/>
      <g id="Group_2" data-name="Group 2" transform="translate(83.216 11.271)">
        <g id="Group_1" data-name="Group 1" clip-path="url(#clip-path)">
          <path id="Path_3" data-name="Path 3" d="M35.3,233.557s57.745-57.942,154.185-30.444,153.2,3.926,141.221-141.812c0,0,135.525,18.855,118.241,115.3C427.93,293.656,155.505,338.242,35.3,233.557Z" transform="translate(-45.422 27.011)" fill="rgba(255,255,255,0.2)"/>
        </g>
      </g>
      <g id="Group_8" data-name="Group 8" transform="translate(61.505 24.945)">
        <g id="Group_3" data-name="Group 3">
          <path id="Path_5" data-name="Path 5" d="M167.478,32.139V88.706a8.8,8.8,0,0,1-8.839,8.839H38.239A8.8,8.8,0,0,1,29.4,88.706V32.139A8.8,8.8,0,0,1,38.239,23.3h120.4a9.06,9.06,0,0,1,8.839,8.839Z" transform="translate(-29.4 -23.3)" fill="#dc56fc"/>
        </g>
        <path id="Path_6" data-name="Path 6" d="M167.478,32.139v4.907H29.4V32.139A8.8,8.8,0,0,1,38.239,23.3h120.4a9.06,9.06,0,0,1,8.839,8.839Z" transform="translate(-29.4 -23.3)" fill="rgba(0,0,0,0.24)"/>
        <g id="Group_4" data-name="Group 4" transform="translate(5.893 5.867)">
          <circle id="Ellipse_1" data-name="Ellipse 1" cx="1.768" cy="1.768" r="1.768" transform="translate(0 0.025)" fill="#fff"/>
          <path id="Path_7" data-name="Path 7" d="M39.835,28.08a1.768,1.768,0,1,1-1.768-1.768C38.853,26.116,39.835,27.1,39.835,28.08Z" transform="translate(-28.64 -26.287)" fill="#fff"/>
          <path id="Path_8" data-name="Path 8" d="M43.535,28.068a1.76,1.76,0,1,1-.515-1.252A1.76,1.76,0,0,1,43.535,28.068Z" transform="translate(-25.072 -26.275)" fill="#fff"/>
        </g>
        <path id="Path_9" data-name="Path 9" d="M67.562,60.23H39.671A1.546,1.546,0,0,1,38.1,58.659V36.071A1.546,1.546,0,0,1,39.671,34.5H67.366a1.546,1.546,0,0,1,1.571,1.571V58.462a1.469,1.469,0,0,1-1.375,1.768Z" transform="translate(-21.012 -12.502)" fill="#fff"/>
        <g id="Group_5" data-name="Group 5" transform="translate(15.124 55.781)">
          <path id="Path_10" data-name="Path 10" d="M141,55.628H39.064A1.968,1.968,0,0,1,37.1,53.664h0A1.968,1.968,0,0,1,39.064,51.7H141a1.968,1.968,0,0,1,1.964,1.964h0A1.968,1.968,0,0,1,141,55.628Z" transform="translate(-37.1 -51.7)" fill="#fff"/>
        </g>
        <g id="Group_6" data-name="Group 6" transform="translate(55.192 41.05)">
          <path id="Path_11" data-name="Path 11" d="M121.334,48.128H59.464A1.968,1.968,0,0,1,57.5,46.164h0A1.968,1.968,0,0,1,59.464,44.2h61.87a1.968,1.968,0,0,1,1.964,1.964h0A1.968,1.968,0,0,1,121.334,48.128Z" transform="translate(-57.5 -44.2)" fill="#fff"/>
        </g>
        <g id="Group_7" data-name="Group 7" transform="translate(55.192 27.302)">
          <path id="Path_12" data-name="Path 12" d="M97.765,41.128h-38.3A1.968,1.968,0,0,1,57.5,39.164h0A1.968,1.968,0,0,1,59.464,37.2h38.3a1.968,1.968,0,0,1,1.964,1.964h0a2.113,2.113,0,0,1-1.963,1.964Z" transform="translate(-57.5 -37.2)" fill="#fff"/>
        </g>
      </g>
      <path id="Path_14" data-name="Path 14" d="M174.8,37.117s4.517-5.107,7.071-7.463c4.91-4.124,10.41-11.588,28.479-6.089a35.415,35.415,0,0,1,4.124,1.571c1.571.589,6.481.589,11.392-3.339,8.053-6.285,11-11,22-11.2,12.767-.2,14.731,15.713,24.552,19.642,6.285,2.553,22.784,5.107,26.32,6.285Z" transform="translate(172.29 -10.601)" fill="rgba(104,109,224,0.1)"/>
      <path id="Path_60" data-name="Path 60" d="M174.8,23.811s2.25-2.544,3.523-3.718c2.446-2.054,5.186-5.773,14.188-3.033a17.641,17.641,0,0,1,2.054.783c.783.294,3.229.294,5.675-1.663,4.012-3.131,5.479-5.479,10.959-5.577,6.36-.1,7.339,7.828,12.231,9.785,3.131,1.272,11.351,2.544,13.112,3.131Z" transform="translate(-174.8 117.41)" fill="rgba(104,109,224,0.1)"/>
      <g id="Group_9" data-name="Group 9" transform="translate(122.001 71.299)">
        <path id="Path_15" data-name="Path 15" d="M128.471,49.453l-.982-2.553-.982,2.553A8.722,8.722,0,0,1,121.4,54.56h0a9.279,9.279,0,0,1,5.107,5.107l.982,2.553.982-2.553a8.722,8.722,0,0,1,5.107-5.107h0a8.722,8.722,0,0,1-5.107-5.107Z" transform="translate(-1.195 -46.9)" fill="#fff"/>
        <path id="Path_16" data-name="Path 16" d="M86.371,125.753l-.982-2.553-.982,2.553A8.722,8.722,0,0,1,79.3,130.86h0a9.279,9.279,0,0,1,5.107,5.107l.982,2.553.982-2.553a8.722,8.722,0,0,1,5.107-5.107h0a8.722,8.722,0,0,1-5.107-5.107Z" transform="translate(-41.785 26.663)" fill="#fff"/>
        <path id="Path_17" data-name="Path 17" d="M211.317,117.368l-.589-1.768-.589,1.768a6.178,6.178,0,0,1-3.339,3.339h0a6.886,6.886,0,0,1,3.339,3.339l.589,1.768.589-1.768a6.178,6.178,0,0,1,3.339-3.339h0a6.886,6.886,0,0,1-3.339-3.339Z" transform="translate(81.142 19.336)" fill="#fff"/>
        <path id="Path_18" data-name="Path 18" d="M64.717,73.068,64.128,71.3l-.589,1.768A6.178,6.178,0,0,1,60.2,76.407h0a6.886,6.886,0,0,1,3.339,3.339l.589,1.768.589-1.768a6.178,6.178,0,0,1,3.339-3.339h0A6.886,6.886,0,0,1,64.717,73.068Z" transform="translate(-60.2 -23.375)" fill="#fff"/>
      </g>
      <g id="Group_14" data-name="Group 14" transform="translate(285.808 120.6)">
        <path id="Path_23" data-name="Path 23" d="M144.2,195.558h66.388a25.989,25.989,0,0,0,25.926-23.177L246.138,72.8H179.751l-1.375,57.746Z" transform="translate(-143.02 -71.231)" fill="#c5c9e6"/>
        <path id="Path_24" data-name="Path 24" d="M144.778,195.348c17.088-.589,34.176-.982,51.067-1.179l12.767-.2h3.143c.982,0,1.964-.2,2.946-.2a17.689,17.689,0,0,0,5.5-1.571,23.626,23.626,0,0,0,13.947-17.28,51.214,51.214,0,0,0,.785-6.089l.589-6.285,1.179-12.767c.785-8.446,1.768-16.891,2.553-25.534,1.768-16.891,3.732-33.98,5.7-50.871A1.718,1.718,0,0,1,246.717,72a1.667,1.667,0,0,1,1.375,1.571c-1.179,17.088-2.553,33.98-4.124,51.068-.785,8.446-1.375,17.088-2.357,25.534l-1.179,12.767-.589,6.285c-.2,2.161-.393,4.124-.785,6.678-1.768,9.231-8.248,17.481-17.088,20.819a21.077,21.077,0,0,1-6.678,1.768,21.348,21.348,0,0,1-3.535.2h-3.339l-12.767-.2c-17.088-.2-34.176-.589-51.068-1.179a1.1,1.1,0,0,1-.982-1.179,1.327,1.327,0,0,1,1.177-.79Z" transform="translate(-143.598 -72.003)" fill="#3d415b"/>
        <line id="Line_1" data-name="Line 1" y2="70.316" transform="translate(39.088 126.291)" fill="none" stroke="#3d415b" stroke-miterlimit="10" stroke-width="2.496"/>
      </g>
      <g id="Group_24" data-name="Group 24" transform="translate(123.629 54.227)">
        <rect id="Rectangle_5" data-name="Rectangle 5" width="213.894" height="3.339" transform="translate(213.894 129.99) rotate(180)" fill="#3d415b"/>
        <path id="Path_25" data-name="Path 25" d="M162.977,178.9l2.357,8.053-11,3.339L150.8,180.275Z" transform="translate(25.523 97.437)" fill="#e3bc9a"/>
        <path id="Path_26" data-name="Path 26" d="M123.1,175.8v6.678h9.622L133.9,175.8Z" transform="translate(-1.184 94.448)" fill="#e3bc9a"/>
        <g id="Group_17" data-name="Group 17" transform="translate(118.381 59.194)">
          <g id="Group_15" data-name="Group 15" transform="translate(0 10.024)">
            <path id="Path_27" data-name="Path 27" d="M193.406,85.519l-14.731,36.533-.393.785a5.5,5.5,0,0,1-5.107,3.535l-42.032-.393A3.1,3.1,0,0,1,128,122.833a2.974,2.974,0,0,1,2.553-2.946l41.64-6.089-5.5,4.321,10.018-38.1A8.838,8.838,0,1,1,193.8,84.532,3.32,3.32,0,0,1,193.406,85.519Z" transform="translate(-114.841 -73.433)" fill="#d8ac89"/>
            <path id="Path_28" data-name="Path 28" d="M142.119,96.893,127.781,96.5c-3.535,0-6.481,3.143-6.481,7.071h21.016Z" transform="translate(-121.3 -51.226)" fill="#d8ac89"/>
          </g>
          <g id="Group_16" data-name="Group 16" transform="translate(55.388)">
            <path id="Path_29" data-name="Path 29" d="M149.5,94.757l22.98,5.7,3.732-20.427a9.918,9.918,0,0,0-8.446-11.588h0a10.186,10.186,0,0,0-11,6.481Z" transform="translate(-149.5 -68.331)" fill="#5f63be"/>
          </g>
        </g>
        <path id="Path_30" data-name="Path 30" d="M201.431,102.1l-70.9,35.944a18.507,18.507,0,0,0-10.213,17.678l5.3,91.135h10.8l14.731-97.418,55.192-38.694Z" transform="translate(-3.895 23.392)" fill="#303348"/>
        <path id="Path_31" data-name="Path 31" d="M164.757,39.37s19.642-6.678,30.051,11.981a11.225,11.225,0,0,0,2.161,3.143c2.161,2.553,6.481,7.071,11.392,8.446,19.245,5.893,31.23,42.229-6.873,45.372-47.728,4.124-61.281-5.3-54.6-24.356,4.91-13.553.589-23.177.589-23.177Z" transform="translate(20.208 -38.208)" fill="#282c3c"/>
        <path id="Path_32" data-name="Path 32" d="M173.038,63.6l-10.213,4.517A16.478,16.478,0,0,0,153,83.437c.2,13.356,3.143,46.55,14.535,59.316H202.1c5.3-23.57,2.357-59.71,2.357-59.71A17.124,17.124,0,0,0,189.53,65.365Z" transform="translate(27.64 -13.727)" fill="#686de0"/>
        <g id="Group_19" data-name="Group 19" transform="translate(163.297 1.359)">
          <g id="Group_18" data-name="Group 18" transform="translate(6.543 11.195)">
            <path id="Path_33" data-name="Path 33" d="M168.617,83.466h0a6.593,6.593,0,0,1-7.267-5.7l-2.749-22L171.759,54.2l2.75,21.8a6.675,6.675,0,0,1-5.892,7.463Z" transform="translate(-136.798 -35.345)" fill="#ddb28d"/>
            <path id="Path_34" data-name="Path 34" d="M168.516,81.526h-.589a15.945,15.945,0,0,1-17.87-13.746L147.5,48.724,179.712,44.6l2.553,19.052a15.912,15.912,0,0,1-13.749,17.873Z" transform="translate(-147.5 -44.6)" fill="#e3bc9a"/>
          </g>
          <path id="Path_35" data-name="Path 35" d="M186.459,61.88l-2.749,5.7s-3.732,3.143-4.714-4.714c-.785-6.678-5.7-5.5-5.7-5.5s-16.7,12.765-26.709,3.926C138.73,54.419,151.3,41.847,165.832,38.9l18.855,8.248Z" transform="translate(-144.169 -38.901)" fill="#282c3c"/>
          <path id="Path_36" data-name="Path 36" d="M163.422,56.5a5.336,5.336,0,1,0,4.714-5.893,5.2,5.2,0,0,0-4.714,5.893Z" transform="translate(-125.649 -27.624)" fill="#e3bc9a"/>
          <path id="Path_37" data-name="Path 37" d="M165.6,55.008c0,.589.589.982.982.785.589,0,.982-.589.785-.982,0-.589-.589-.982-.982-.785C165.8,54.025,165.6,54.418,165.6,55.008Z" transform="translate(-123.506 -24.367)" fill="#fff"/>
          <path id="Path_38" data-name="Path 38" d="M151.7,59.664l9.035-1.964s.393,3.928-4.517,4.714a3.793,3.793,0,0,1-4.517-2.75Z" transform="translate(-136.907 -20.775)" fill="#fff"/>
        </g>
        <path id="Path_39" data-name="Path 39" d="M225.644,103.9H191.076l-55.193,33.39a15.282,15.282,0,0,0-6.085,19.052l42.425,96.243L184.4,251.21l-22.784-92.9c19.052-.785,54.6-3.732,63.834-13.945C241.161,126.684,225.644,103.9,225.644,103.9Z" transform="translate(4.103 25.127)" fill="#3d415b"/>
        <g id="Group_20" data-name="Group 20" transform="translate(49.288 68.532)">
          <path id="Path_40" data-name="Path 40" d="M148.932,73.3l19.642,52.837h-64.03L86.275,76.243A2.32,2.32,0,0,1,88.437,73.1h60.5Z" transform="translate(-86.124 -73.1)" fill="#93b7fa"/>
          <path id="Path_41" data-name="Path 41" d="M118.1,73.2h3.143a4.028,4.028,0,0,1,3.732,2.553l18.463,50.282h-5.7Z" transform="translate(-55.292 -73.003)" fill="#a9c9fa"/>
          <path id="Path_42" data-name="Path 42" d="M100.314,105.207h59.12V100.1H95.6v.393a4.779,4.779,0,0,0,4.714,4.714Z" transform="translate(-76.985 -47.068)" fill="#82a7e7"/>
          <path id="Path_43" data-name="Path 43" d="M128.1,105.207h39.479a2.6,2.6,0,0,0,2.553-2.553h0a2.6,2.6,0,0,0-2.553-2.553H128.1Z" transform="translate(-45.652 -47.068)" fill="#8eb6ec"/>
          <path id="Path_44" data-name="Path 44" d="M115.5,89.074c1.179,3.732-.2,7.463-3.339,8.446-2.946.982-6.481-1.179-7.66-4.714-1.179-3.732.2-7.463,3.339-8.446C110.987,83.18,114.322,85.34,115.5,89.074Z" transform="translate(-68.803 -62.557)" fill="#ecf2f5"/>
        </g>
        <g id="Group_23" data-name="Group 23" transform="translate(145.289 57.79)">
          <g id="Group_21" data-name="Group 21" transform="translate(0 10.277)">
            <path id="Path_45" data-name="Path 45" d="M207.4,85.107,192.471,122.23l-.393.785a5.572,5.572,0,0,1-5.3,3.535l-42.032-.2a3.1,3.1,0,0,1-3.143-3.143,3.333,3.333,0,0,1,2.749-3.143l41.64-6.089-5.5,4.321L190.51,79.6a8.908,8.908,0,0,1,17.284,4.322,2.791,2.791,0,0,0-.394,1.183Z" transform="translate(-128.636 -72.858)" fill="#e3bc9a"/>
            <path id="Path_46" data-name="Path 46" d="M155.819,96.693,141.481,96.3c-3.535,0-6.481,3.339-6.481,7.267h21.016Z" transform="translate(-135 -50.267)" fill="#e3bc9a"/>
          </g>
          <g id="Group_22" data-name="Group 22" transform="translate(55.388)">
            <path id="Path_47" data-name="Path 47" d="M163.2,94.674l22.98,5.7,3.732-20.824a10.008,10.008,0,0,0-8.446-11.785h0a9.966,9.966,0,0,0-11,6.481Z" transform="translate(-163.2 -67.629)" fill="#5f63be"/>
          </g>
        </g>
        <path id="Path_48" data-name="Path 48" d="M159.079,181.222l-5.3,5.3L141.8,189.474a4.644,4.644,0,0,0-2.749,2.357l-.589,1.768a1.328,1.328,0,0,0,1.179,1.768l38.89-.982a2.358,2.358,0,0,0,2.161-2.357l-3.143-11-5.893,1.375a7.681,7.681,0,0,1-5.893-.589l-2.161-1.179a3.876,3.876,0,0,0-4.517.584Z" transform="translate(13.511 98.651)" fill="#29323d"/>
        <path id="Path_49" data-name="Path 49" d="M130.679,177.321l-5.3,5.3L113.4,185.573a4.645,4.645,0,0,0-2.749,2.357l-.589,1.768a1.328,1.328,0,0,0,1.179,1.768l35.158-.785a2.358,2.358,0,0,0,2.161-2.357l-.982-11.2-4.321,1.375a7.681,7.681,0,0,1-5.893-.589l-2.161-1.179a3.876,3.876,0,0,0-4.524.59Z" transform="translate(-13.87 94.891)" fill="#29323d"/>
      </g>
      <g id="Group_28" data-name="Group 28" transform="translate(398.944 58.728)">
        <path id="Path_50" data-name="Path 50" d="M207.289,80.568h98.8a6.12,6.12,0,0,0,6.089-6.089V46.589a6.12,6.12,0,0,0-6.089-6.089h-98.8a6.12,6.12,0,0,0-6.089,6.089V74.676a6.083,6.083,0,0,0,6.089,5.892Z" transform="translate(-201.2 -40.5)" fill="#793beb"/>
        <g id="Group_27" data-name="Group 27" transform="translate(12.171 8.45)">
          <path id="Path_51" data-name="Path 51" d="M241.064,67.978h20.427a1.968,1.968,0,0,0,1.964-1.964V46.769a1.968,1.968,0,0,0-1.964-1.964H241.064a1.968,1.968,0,0,0-1.964,1.964V66.014a2.29,2.29,0,0,0,1.964,1.964Z" transform="translate(-176.831 -44.805)" fill="#fff"/>
          <g id="Group_26" data-name="Group 26" transform="translate(0 1.764)">
            <path id="Path_52" data-name="Path 52" d="M208.971,48.843h52.64a1.546,1.546,0,0,0,1.571-1.571h0a1.546,1.546,0,0,0-1.571-1.571h-52.64a1.546,1.546,0,0,0-1.571,1.571h0a1.546,1.546,0,0,0,1.571,1.571Z" transform="translate(-207.394 -45.7)" fill="#fff"/>
            <g id="Group_25" data-name="Group 25" transform="translate(0 8.249)">
              <path id="Path_53" data-name="Path 53" d="M226.486,53.043h18.463a1.546,1.546,0,0,0,1.571-1.571h0a1.546,1.546,0,0,0-1.571-1.571H226.486a1.546,1.546,0,0,0-1.571,1.571h0C224.718,52.453,225.5,53.043,226.486,53.043Z" transform="translate(-190.537 -49.9)" fill="#fff"/>
              <path id="Path_54" data-name="Path 54" d="M208.97,53.043h22a1.546,1.546,0,0,0,1.571-1.571h0A1.546,1.546,0,0,0,230.97,49.9h-22a1.546,1.546,0,0,0-1.571,1.571h0a1.446,1.446,0,0,0,1.571,1.571Z" transform="translate(-207.393 -49.9)" fill="#fff"/>
            </g>
            <path id="Path_55" data-name="Path 55" d="M215.671,57.343H255.15a1.546,1.546,0,0,0,1.571-1.571h0A1.546,1.546,0,0,0,255.15,54.2H215.671a1.546,1.546,0,0,0-1.571,1.571h0a1.69,1.69,0,0,0,1.571,1.571Z" transform="translate(-200.935 -37.505)" fill="#fff"/>
          </g>
        </g>
      </g>
      <g id="Group_29" data-name="Group 29" transform="translate(143.7 141.221)">
        <path id="Path_56" data-name="Path 56" d="M79.519,102.695s16.3,0,12.963-16.695C92.285,86,75.394,87.768,79.519,102.695Z" transform="translate(-63.899 -79.125)" fill="#93b7fa"/>
        <path id="Path_57" data-name="Path 57" d="M84.707,102.391s-16.5,0-12.963-16.891C71.744,85.5,89.029,87.071,84.707,102.391Z" transform="translate(-71.248 -79.607)" fill="#93b7fa"/>
        <path id="Path_58" data-name="Path 58" d="M80.823,105.284S68.844,93.106,82.987,82.5C82.987,82.5,94.378,96.641,80.823,105.284Z" transform="translate(-66.581 -82.5)" fill="#82a7e7"/>
        <path id="Path_59" data-name="Path 59" d="M98.12,93.4H71.8l4.321,18.266H93.6Z" transform="translate(-70.715 -71.991)" fill="#583bf5"/>
      </g>
    </g>
    <line id="Line_2" data-name="Line 2" y2="128.847" transform="translate(218.655 208.469)" fill="none" stroke="#3d415b" stroke-miterlimit="10" stroke-width="2"/>
  </g>
</svg>
